<svg width="67" height="31" viewBox="0 0 67 31" fill="none" xmlns="http://www.w3.org/2000/svg">
<path d="M4.03 19.93C4.11667 20.6927 4.42867 21.308 4.966 21.776C5.50333 22.244 6.20533 22.478 7.072 22.478C7.8 22.478 8.38933 22.3567 8.84 22.114C9.308 21.8713 9.646 21.5767 9.854 21.23C10.062 20.8833 10.166 20.5453 10.166 20.216C10.166 19.4533 9.97533 18.8207 9.594 18.318C9.23 17.798 8.77067 17.3907 8.216 17.096C7.67867 16.784 6.942 16.4287 6.006 16.03C4.98333 15.5967 4.16867 15.2067 3.562 14.86C2.97267 14.496 2.46133 14.0107 2.028 13.404C1.612 12.78 1.404 11.9913 1.404 11.038C1.404 10.2753 1.62067 9.556 2.054 8.88C2.48733 8.18667 3.146 7.62333 4.03 7.19C4.914 6.75667 5.99733 6.54 7.28 6.54C8.12933 6.54 8.83133 6.60067 9.386 6.722C9.94067 6.84333 10.504 7.04267 11.076 7.32L10.166 10.024C9.542 9.816 9.03067 9.66867 8.632 9.582C8.25067 9.49533 7.80867 9.452 7.306 9.452C6.318 9.452 5.59 9.62533 5.122 9.972C4.654 10.3187 4.446 10.7607 4.498 11.298C4.55 11.7313 4.81 12.104 5.278 12.416C5.76333 12.728 6.50867 13.1093 7.514 13.56C8.69267 14.08 9.672 14.574 10.452 15.042C11.232 15.51 11.8993 16.1513 12.454 16.966C13.026 17.7807 13.312 18.7773 13.312 19.956C13.312 21.4987 12.8007 22.7727 11.778 23.778C10.7553 24.7833 9.19533 25.286 7.098 25.286C5.81533 25.286 4.71467 25.052 3.796 24.584C2.89467 24.0987 2.20133 23.4833 1.716 22.738C1.248 21.9753 0.996667 21.1867 0.962 20.372L4.03 19.93ZM18.6702 25.338C16.0356 25.286 14.7182 24.0293 14.7182 21.568V6.8H17.6302V11.974H20.1002L19.4762 14.652H17.6302V21.568C17.6302 22.1573 17.7949 22.556 18.1242 22.764C18.4536 22.9547 18.9216 23.05 19.5282 23.05L18.6702 25.338ZM31.435 20.216C31.435 21.672 31.0363 22.8767 30.239 23.83C29.4417 24.7833 28.237 25.26 26.625 25.26C25.013 25.26 23.791 24.7833 22.959 23.83C22.1443 22.8593 21.737 21.6547 21.737 20.216V16.784C21.737 15.1373 22.153 13.8807 22.985 13.014C23.8343 12.13 25.0477 11.688 26.625 11.688C28.133 11.688 29.3117 12.1473 30.161 13.066C31.0103 13.9673 31.435 15.2067 31.435 16.784V20.216ZM28.601 16.784C28.601 15.8653 28.4103 15.2673 28.029 14.99C27.6477 14.7127 27.1797 14.574 26.625 14.574C25.273 14.574 24.597 15.3107 24.597 16.784V20.476C24.597 21.1693 24.7877 21.672 25.169 21.984C25.5503 22.296 26.0357 22.452 26.625 22.452C27.197 22.452 27.665 22.2873 28.029 21.958C28.4103 21.6287 28.601 21.1347 28.601 20.476V16.784ZM33.0411 11.974H35.6931L35.9011 12.078C36.6117 11.8353 37.2791 11.714 37.9031 11.714C38.3364 11.714 38.9691 11.8007 39.8011 11.974L40.3211 12.078L39.6451 14.86C39.1597 14.6173 38.6831 14.496 38.2151 14.496C37.5737 14.496 37.0277 14.6953 36.5771 15.094C36.1264 15.4753 35.9011 15.9867 35.9011 16.628V25H33.0411V11.974ZM43.1329 9.608C42.7169 9.608 42.3529 9.452 42.0409 9.14C41.7289 8.828 41.5729 8.464 41.5729 8.048C41.5729 7.64933 41.7289 7.30267 42.0409 7.008C42.3529 6.696 42.7169 6.54 43.1329 6.54C43.5316 6.54 43.8783 6.696 44.1729 7.008C44.4849 7.30267 44.6409 7.64933 44.6409 8.048C44.6409 8.464 44.4849 8.828 44.1729 9.14C43.8783 9.452 43.5316 9.608 43.1329 9.608ZM41.6249 11.974H44.4849V25H41.6249V11.974ZM49.5265 21.126C49.5265 21.6113 49.6565 21.9927 49.9165 22.27C50.1938 22.53 50.5925 22.66 51.1125 22.66C51.9098 22.66 52.9758 22.3133 54.3105 21.62L55.3505 24.09C54.7265 24.4887 54.0158 24.792 53.2185 25C52.4211 25.208 51.6238 25.312 50.8265 25.312C49.5438 25.312 48.5211 25 47.7585 24.376C47.0131 23.7347 46.6405 22.7813 46.6405 21.516V16.186C46.6405 14.782 47.0738 13.69 47.9405 12.91C48.8245 12.13 49.9858 11.74 51.4245 11.74C52.8631 11.74 53.9811 12.13 54.7785 12.91C55.5931 13.6727 56.0005 14.7387 56.0005 16.108V20.06L49.5265 20.398V21.126ZM53.1145 16.16C53.1145 15.64 52.9498 15.2413 52.6205 14.964C52.2911 14.6867 51.8838 14.548 51.3985 14.548C50.7398 14.548 50.2631 14.7213 49.9685 15.068C49.6738 15.4147 49.5265 15.796 49.5265 16.212V17.772L53.1145 17.538V16.16ZM59.7999 21.412C59.7999 21.724 59.9559 22.0187 60.2679 22.296C60.5972 22.5733 61.0912 22.712 61.7499 22.712C62.3219 22.712 62.7639 22.5733 63.0759 22.296C63.3879 22.0013 63.5439 21.6633 63.5439 21.282C63.5439 20.7447 63.3446 20.346 62.9459 20.086C62.5646 19.826 61.9406 19.54 61.0739 19.228C60.3286 18.9853 59.7132 18.7427 59.2279 18.5C58.7426 18.2573 58.3092 17.8933 57.9279 17.408C57.5466 16.9227 57.3212 16.29 57.2519 15.51C57.1999 14.9207 57.3126 14.3313 57.5899 13.742C57.8846 13.1353 58.3699 12.6413 59.0459 12.26C59.7392 11.8613 60.6232 11.662 61.6979 11.662C62.2526 11.662 62.7379 11.7227 63.1539 11.844C63.5872 11.948 63.9252 12.0607 64.1679 12.182C64.4106 12.3033 64.5579 12.3813 64.6099 12.416L63.7779 15.068C63.7432 15.0333 63.6479 14.9727 63.4919 14.886C63.3532 14.782 63.1279 14.6867 62.8159 14.6C62.5039 14.5133 62.1312 14.47 61.6979 14.47C60.7619 14.47 60.2939 14.73 60.2939 15.25C60.2939 15.354 60.3112 15.458 60.3459 15.562C60.3979 15.8047 60.5799 16.0127 60.8919 16.186C61.2039 16.342 61.6632 16.5327 62.2699 16.758C63.1192 17.07 63.8299 17.382 64.4019 17.694C64.9912 17.9887 65.4939 18.4393 65.9099 19.046C66.3432 19.6353 66.5599 20.398 66.5599 21.334C66.5599 22.0447 66.3866 22.712 66.0399 23.336C65.6932 23.9427 65.1559 24.4367 64.4279 24.818C63.7172 25.1993 62.8246 25.39 61.7499 25.39C60.7619 25.39 59.9039 25.2253 59.1759 24.896C58.4652 24.5493 57.9192 24.0987 57.5379 23.544C57.1739 22.9893 56.9746 22.374 56.9399 21.698L59.7999 21.412Z" fill="white"/>
</svg>
