<svg width="67" height="20" viewBox="0 0 67 20" fill="none" xmlns="http://www.w3.org/2000/svg">
<path d="M4.03 13.93C4.11667 14.6927 4.42867 15.308 4.966 15.776C5.50333 16.244 6.20533 16.478 7.072 16.478C7.8 16.478 8.38933 16.3567 8.84 16.114C9.308 15.8713 9.646 15.5767 9.854 15.23C10.062 14.8833 10.166 14.5453 10.166 14.216C10.166 13.4533 9.97533 12.8207 9.594 12.318C9.23 11.798 8.77067 11.3907 8.216 11.096C7.67867 10.784 6.942 10.4287 6.006 10.03C4.98333 9.59667 4.16867 9.20667 3.562 8.86C2.97267 8.496 2.46133 8.01067 2.028 7.404C1.612 6.78 1.404 5.99133 1.404 5.038C1.404 4.27533 1.62067 3.556 2.054 2.88C2.48733 2.18667 3.146 1.62333 4.03 1.19C4.914 0.756665 5.99733 0.539999 7.28 0.539999C8.12933 0.539999 8.83133 0.600666 9.386 0.722C9.94067 0.843333 10.504 1.04267 11.076 1.32L10.166 4.024C9.542 3.816 9.03067 3.66867 8.632 3.582C8.25067 3.49533 7.80867 3.452 7.306 3.452C6.318 3.452 5.59 3.62533 5.122 3.972C4.654 4.31867 4.446 4.76067 4.498 5.298C4.55 5.73133 4.81 6.104 5.278 6.416C5.76333 6.728 6.50867 7.10933 7.514 7.56C8.69267 8.08 9.672 8.574 10.452 9.042C11.232 9.51 11.8993 10.1513 12.454 10.966C13.026 11.7807 13.312 12.7773 13.312 13.956C13.312 15.4987 12.8007 16.7727 11.778 17.778C10.7553 18.7833 9.19533 19.286 7.098 19.286C5.81533 19.286 4.71467 19.052 3.796 18.584C2.89467 18.0987 2.20133 17.4833 1.716 16.738C1.248 15.9753 0.996667 15.1867 0.962 14.372L4.03 13.93ZM18.6702 19.338C16.0356 19.286 14.7182 18.0293 14.7182 15.568V0.799999H17.6302V5.974H20.1002L19.4762 8.652H17.6302V15.568C17.6302 16.1573 17.7949 16.556 18.1242 16.764C18.4536 16.9547 18.9216 17.05 19.5282 17.05L18.6702 19.338ZM31.435 14.216C31.435 15.672 31.0363 16.8767 30.239 17.83C29.4417 18.7833 28.237 19.26 26.625 19.26C25.013 19.26 23.791 18.7833 22.959 17.83C22.1443 16.8593 21.737 15.6547 21.737 14.216V10.784C21.737 9.13733 22.153 7.88067 22.985 7.014C23.8343 6.13 25.0477 5.688 26.625 5.688C28.133 5.688 29.3117 6.14733 30.161 7.066C31.0103 7.96733 31.435 9.20667 31.435 10.784V14.216ZM28.601 10.784C28.601 9.86533 28.4103 9.26733 28.029 8.99C27.6477 8.71267 27.1797 8.574 26.625 8.574C25.273 8.574 24.597 9.31067 24.597 10.784V14.476C24.597 15.1693 24.7877 15.672 25.169 15.984C25.5503 16.296 26.0357 16.452 26.625 16.452C27.197 16.452 27.665 16.2873 28.029 15.958C28.4103 15.6287 28.601 15.1347 28.601 14.476V10.784ZM33.0411 5.974H35.6931L35.9011 6.078C36.6117 5.83533 37.2791 5.714 37.9031 5.714C38.3364 5.714 38.9691 5.80067 39.8011 5.974L40.3211 6.078L39.6451 8.86C39.1597 8.61733 38.6831 8.496 38.2151 8.496C37.5737 8.496 37.0277 8.69533 36.5771 9.094C36.1264 9.47533 35.9011 9.98667 35.9011 10.628V19H33.0411V5.974ZM43.1329 3.608C42.7169 3.608 42.3529 3.452 42.0409 3.14C41.7289 2.828 41.5729 2.464 41.5729 2.048C41.5729 1.64933 41.7289 1.30267 42.0409 1.008C42.3529 0.695999 42.7169 0.539999 43.1329 0.539999C43.5316 0.539999 43.8783 0.695999 44.1729 1.008C44.4849 1.30267 44.6409 1.64933 44.6409 2.048C44.6409 2.464 44.4849 2.828 44.1729 3.14C43.8783 3.452 43.5316 3.608 43.1329 3.608ZM41.6249 5.974H44.4849V19H41.6249V5.974ZM49.5265 15.126C49.5265 15.6113 49.6565 15.9927 49.9165 16.27C50.1938 16.53 50.5925 16.66 51.1125 16.66C51.9098 16.66 52.9758 16.3133 54.3105 15.62L55.3505 18.09C54.7265 18.4887 54.0158 18.792 53.2185 19C52.4211 19.208 51.6238 19.312 50.8265 19.312C49.5438 19.312 48.5211 19 47.7585 18.376C47.0131 17.7347 46.6405 16.7813 46.6405 15.516V10.186C46.6405 8.782 47.0738 7.69 47.9405 6.91C48.8245 6.13 49.9858 5.74 51.4245 5.74C52.8631 5.74 53.9811 6.13 54.7785 6.91C55.5931 7.67267 56.0005 8.73867 56.0005 10.108V14.06L49.5265 14.398V15.126ZM53.1145 10.16C53.1145 9.64 52.9498 9.24133 52.6205 8.964C52.2911 8.68667 51.8838 8.548 51.3985 8.548C50.7398 8.548 50.2631 8.72133 49.9685 9.068C49.6738 9.41467 49.5265 9.796 49.5265 10.212V11.772L53.1145 11.538V10.16ZM59.7999 15.412C59.7999 15.724 59.9559 16.0187 60.2679 16.296C60.5972 16.5733 61.0912 16.712 61.7499 16.712C62.3219 16.712 62.7639 16.5733 63.0759 16.296C63.3879 16.0013 63.5439 15.6633 63.5439 15.282C63.5439 14.7447 63.3446 14.346 62.9459 14.086C62.5646 13.826 61.9406 13.54 61.0739 13.228C60.3286 12.9853 59.7132 12.7427 59.2279 12.5C58.7426 12.2573 58.3092 11.8933 57.9279 11.408C57.5466 10.9227 57.3212 10.29 57.2519 9.51C57.1999 8.92067 57.3126 8.33133 57.5899 7.742C57.8846 7.13533 58.3699 6.64133 59.0459 6.26C59.7392 5.86133 60.6232 5.662 61.6979 5.662C62.2526 5.662 62.7379 5.72267 63.1539 5.844C63.5872 5.948 63.9252 6.06067 64.1679 6.182C64.4106 6.30333 64.5579 6.38133 64.6099 6.416L63.7779 9.068C63.7432 9.03333 63.6479 8.97267 63.4919 8.886C63.3532 8.782 63.1279 8.68667 62.8159 8.6C62.5039 8.51333 62.1312 8.47 61.6979 8.47C60.7619 8.47 60.2939 8.73 60.2939 9.25C60.2939 9.354 60.3112 9.458 60.3459 9.562C60.3979 9.80467 60.5799 10.0127 60.8919 10.186C61.2039 10.342 61.6632 10.5327 62.2699 10.758C63.1192 11.07 63.8299 11.382 64.4019 11.694C64.9912 11.9887 65.4939 12.4393 65.9099 13.046C66.3432 13.6353 66.5599 14.398 66.5599 15.334C66.5599 16.0447 66.3866 16.712 66.0399 17.336C65.6932 17.9427 65.1559 18.4367 64.4279 18.818C63.7172 19.1993 62.8246 19.39 61.7499 19.39C60.7619 19.39 59.9039 19.2253 59.1759 18.896C58.4652 18.5493 57.9192 18.0987 57.5379 17.544C57.1739 16.9893 56.9746 16.374 56.9399 15.698L59.7999 15.412Z" fill="black"/>
</svg>
