<svg width="16" height="12" viewBox="0 0 16 12" fill="none" xmlns="http://www.w3.org/2000/svg">
<path fill-rule="evenodd" clip-rule="evenodd" d="M0.596224 4.80498C0.339978 5.20175 0.164094 5.51443 0.0703819 5.70186C-0.0234606 5.88954 -0.0234606 6.11046 0.0703819 6.29814C0.164094 6.48557 0.339978 6.79825 0.596224 7.19502C1.02033 7.8517 1.52075 8.50799 2.09698 9.12263C3.77421 10.9117 5.7468 12 8 12C10.2532 12 12.2258 10.9117 13.903 9.12263C14.4792 8.50799 14.9797 7.8517 15.4038 7.19502C15.66 6.79825 15.8359 6.48557 15.9296 6.29814C16.0235 6.11046 16.0235 5.88954 15.9296 5.70186C15.8359 5.51443 15.66 5.20175 15.4038 4.80498C14.9797 4.1483 14.4792 3.49201 13.903 2.87737C12.2258 1.08833 10.2532 0 8 0C5.7468 0 3.77421 1.08833 2.09698 2.87737C1.52075 3.49201 1.02033 4.1483 0.596224 4.80498ZM8 8.66667C9.47276 8.66667 10.6667 7.47276 10.6667 6C10.6667 4.52724 9.47276 3.33333 8 3.33333C6.52724 3.33333 5.33333 4.52724 5.33333 6C5.33333 7.47276 6.52724 8.66667 8 8.66667Z" fill="#E5E5E5"/>
</svg>
